# AST/ASF file generated using VICON BodyLanguage
# -----------------------------------------------
:version 1.10
:name VICON
:units
  mass 1.0
  length 0.45
  angle deg
:documentation
   .ast/.asf automatically generated from VICON data using
   VICON BodyBuilder and BodyLanguage model FoxedUp or BRILLIANT.MOD
:root
   order TX TY TZ RX RY RZ
   axis XYZ
   position 0 0 0  
   orientation 0 0 0 
:bonedata
  begin
     id 1 
     name lhipjoint
     direction 0.54267 -0.795011 0.271047 
     length 2.39899 
     axis 0 0 0  XYZ
  end
  begin
     id 2 
     name lfemur
     direction 0.34202 -0.939693 0  
     length 7.49701  
     axis 0 0 20  XYZ
    dof rx ry rz
    limits (-160.0 20.0)
           (-70.0 70.0)
           (-60.0 70.0)
  end
  begin
     id 3 
     name ltibia
     direction 0.34202 -0.939693 0   
     length 8.1668   
     axis 0 0 20   XYZ
    dof rx
    limits (-10.0 170.0)
  end
  begin
     id 4 
     name lfoot
     direction 0.0736283 -0.202292 0.976554   
     length 2.13544   
     axis -90 7.62852e-016 20   XYZ
    dof rx rz
    limits (-45.0 90.0)
           (-70.0 20.0)
  end
  begin
     id 5 
     name ltoes
     direction 1.53557e-011 -4.22024e-011 1   
     length 1.07411   
     axis -90 7.62852e-016 20   XYZ
    dof rx
    limits (-90.0 20.0)
  end
  begin
     id 6 
     name rhipjoint
     direction -0.538061 -0.797813 0.272002   
     length 2.39057  
     axis 0 0 0  XYZ 
  end
  begin
     id 7 
     name rfemur
     direction -0.34202 -0.939693 0   
     length 7.50152   
     axis 0 0 -20   XYZ
    dof rx ry rz
    limits (-160.0 20.0)
           (-70.0 70.0)
           (-70.0 60.0)
  end
  begin
     id 8 
     name rtibia
     direction -0.34202 -0.939693 0   
     length 8.05793   
     axis 0 0 -20   XYZ
    dof rx
    limits (-10.0 170.0)
 end
 begin
     id 9 
     name rfoot
     direction -0.0765195 -0.210236 0.974652   
     length 2.28698  
     axis -90 -7.62852e-016 -20   XYZ
    dof rx rz
    limits (-45.0 90.0)
           (-20.0 70.0)
  end
  begin
     id 10 
     name rtoes
     direction -1.53542e-011 -4.21847e-011 1   
     length 1.14762   
     axis -90 -7.62852e-016 -20   XYZ
    dof rx
    limits (-90.0 20.0)
  end
  begin
     id 11 
     name lowerback
     direction -0.0217239 0.996592 -0.0795765   
     length 2.08176   
     axis 0 0 0   XYZ
    dof rx ry rz
    limits (-20.0 45.0)
           (-30.0 30.0)
           (-30.0 30.0)
  end
  begin
     id 12 
     name upperback
     direction -0.00563773 0.999651 -0.0258155   
     length 2.08898   
     axis 0 0 0   XYZ
    dof rx ry rz
    limits (-20.0 45.0)
           (-30.0 30.0)
           (-30.0 30.0)
  end
  begin
     id 13 
     name thorax
     direction 0.0032706 0.999923 0.0119599   
     length 2.0968   
     axis 0 0 0   XYZ
    dof rx ry rz
    limits (-20.0 45.0)
           (-30.0 30.0)
           (-30.0 30.0)
  end
  begin
     id 14 
     name lowerneck
     direction -0.0285886 0.99568 0.0883427   
     length 1.81272   
     axis 0 0 0   XYZ
    dof rx ry rz
    limits (-20.0 45.0)
           (-30.0 30.0)
           (-30.0 30.0)
  end
  begin
     id 15 
     name upperneck
     direction 0.0807535 0.97985 -0.18268   
     length 1.82518   
     axis 0 0 0   XYZ
    dof rx ry rz
    limits (-20.0 45.0)
           (-30.0 30.0)
           (-30.0 30.0)
  end
  begin
     id 16
     name head
     direction 0.0236605 0.997053 -0.0729767  
     length 1.84443  
     axis 0 0 0   XYZ
    dof rx ry rz
    limits (-20.0 45.0)
           (-30.0 30.0)
           (-30.0 30.0)
  end
  begin
     id 17 
     name lclavicle
     direction 0.918986 0.39378 -0.0200683  
     length 3.27822  
     axis 0 0 0   XYZ
    dof ry rz
    limits (-20.0 10.0)
           (0.0 20.0)
  end
  begin
     id 18 
     name lhumerus
     direction 1 -4.4897e-011 2.09544e-027   
     length 5.5568   
     axis 180 -30 -90   XYZ
    dof rx ry rz
    limits (-60.0 90.0)
           (-90.0 90.0)
           (-90.0 90.0)
  end
  begin
     id 19
     name lradius
     direction 1 -4.48957e-011 -1.27696e-026   
     length 3.63979   
     axis 180 -30 -90   XYZ
    dof rx
    limits (-10.0 170.0)
  end
  begin
     id 20
     name lwrist
     direction 1 -4.49001e-011 -1.49001e-026   
     length 1.8199   
     axis 9.0955e-015 90 90   XYZ
    dof ry
    limits (-180.0 0.0)
 end
  begin
     id 21 
     name lhand
     direction 1 -4.48709e-011 -2.9758e-026   
     length 0.569419   
     axis 1.90115e-014 90 90   XYZ
    dof rx rz
    limits (-90.0 90.0)
           (-45.0 45.0)
  end
  begin
     id 22 
     name lfingers
     direction 1 -4.49175e-011 -5.96505e-026   
     length 0.45908   
     axis 3.80223e-014 90 90   XYZ
    dof rx
    limits (0.0 90.0)
  end
  begin
     id 23
     name lthumb
     direction 0.707107 -6.34864e-011 0.707107   
     length 0.65915   
     axis -90 45 -3.84942e-014   XYZ
    dof rx rz
    limits (-45.0 45.0)
           (-45.0 45.0)
  end
  begin
     id 24 
     name rclavicle
     direction -0.911913 0.396426 -0.106115   
     length 3.46301  
     axis 0 0 0   XYZ 
    dof ry rz
    limits (-10.0 20.0)
           (-20.0 0.0)
  end
  begin
     id 25 
     name rhumerus
     direction -1 -4.48965e-011 7.78516e-028  
     length 5.34339   
     axis 180 30 90   XYZ
    dof rx ry rz
    limits (-90.0 60.0)
           (-90.0 90.0)
           (-90.0 90.0)
  end
  begin
     id 26 
     name rradius
     direction -1 -4.48948e-011 -5.79823e-027   
     length 3.65101   
     axis 180 30 90   XYZ
    dof rx
    limits (-10.0 170.0)
  end
  begin
     id 27 
     name rwrist
     direction -1 -4.48995e-011 -1.48996e-026   
     length 1.8255   
     axis 9.0955e-015 -90 -90   XYZ
    dof ry
    limits (-180.0 0.0)
  end
  begin
     id 28
     name rhand
     direction -1 -4.48957e-011 -2.97937e-026   
     length 0.694249   
     axis 1.90115e-014 -90 -90   XYZ
    dof rx rz
    limits (-90.0 90.0)
           (-45.0 45.0)
  end
  begin
     id 29
     name rfingers
     direction -1 -4.4898e-011 -5.95943e-026   
     length 0.559721   
     axis 3.80223e-014 -90 -90   XYZ
    dof rx
    limits (0.0 90.0)
  end
  begin
     id 30
     name rthumb
     direction -0.707107 -6.34969e-011 0.707107   
     length 0.803651   
     axis -90 -45 3.84942e-014   XYZ
    dof rx rz
    limits (-45.0 45.0)
           (-45.0 45.0)
  end
:hierarchy
  begin
    root lhipjoint rhipjoint lowerback
    lhipjoint lfemur
    lfemur ltibia
    ltibia lfoot
    lfoot ltoes
    rhipjoint rfemur
    rfemur rtibia
    rtibia rfoot
    rfoot rtoes
    lowerback upperback
    upperback thorax
    thorax lowerneck lclavicle rclavicle
    lowerneck upperneck
    upperneck head
    lclavicle lhumerus
    lhumerus lradius
    lradius lwrist
    lwrist lhand lthumb
    lhand lfingers
    rclavicle rhumerus
    rhumerus rradius
    rradius rwrist
    rwrist rhand rthumb
    rhand rfingers
  end

#!OML:ASF H:\Terrain\Walking\May29\JustinRory\rory.ASF
:FULLY-SPECIFIED
:DEGREES
254
root 15.4317 18.334 -13.8744 -3.50697 -39.6596 6.56116
lowerback 4.31352 0.869933 -6.75864
upperback 2.06788 0.856515 -1.8302
thorax -0.355006 0.382451 1.86104
lowerneck -13.4772 -0.894211 -1.34897
upperneck 7.2041 -1.39929 4.18951
head 4.38753 -0.47162 1.40794
rclavicle -2.045e-014 7.55382e-015
rhumerus -25.0718 16.4639 -95.0465
rradius 67.4261
rwrist -4.75077
rhand -33.0148 49.2236
rfingers 7.12502
rthumb -6.22849 19.3352
lclavicle -2.045e-014 7.55382e-015
lhumerus -35.1508 33.9523 67.2282
lradius 36.456
lwrist 166.156
lhand -25.7533 -22.547
lfingers 7.12502
lthumb 0.784011 7.43135
rfemur -25.6071 10.3337 9.89759
rtibia 24.1128
rfoot -4.68801 -8.32839
rtoes 2.73162
lfemur -0.686664 -7.78739 -25.3714
ltibia 15.1623
lfoot -11.6605 -5.32595
ltoes 5.38681
255
root 15.4747 18.3443 -13.9367 -3.27048 -40.158 6.01973
lowerback 4.3187 0.895958 -6.37971
upperback 2.15837 0.911835 -1.69116
thorax -0.266583 0.408024 1.79137
lowerneck -13.5768 -0.779431 -1.20578
upperneck 7.20242 -1.27577 4.22749
head 4.39921 -0.403528 1.40596
rclavicle -4.5795e-014 -9.34288e-015
rhumerus -24.9624 16.4115 -94.8609
rradius 64.6308
rwrist -5.13155
rhand -32.4642 49.223
rfingers 7.12502
rthumb -5.6969 19.3196
lclavicle -4.5795e-014 -9.34288e-015
lhumerus -35.3843 33.4873 67.4359
lradius 36.4977
lwrist 165.151
lhand -23.1298 -20.422
lfingers 7.12502
lthumb 3.31773 9.53192
rfemur -25.2888 10.2104 10.6061
rtibia 24.841
rfoot -5.01882 -9.18073
rtoes 3.71299
lfemur -0.983637 -7.97794 -24.9141
ltibia 15.537
lfoot -11.9605 -4.61568
ltoes 5.49809
256
root 15.5187 18.352 -13.9988 -2.9593 -40.6265 5.43285
lowerback 4.3129 0.902994 -5.99159
upperback 2.21236 0.941326 -1.53527
thorax -0.207603 0.42276 1.73483
lowerneck -13.6039 -0.578685 -0.941511
upperneck 7.06087 -1.04348 4.15943
head 4.35173 -0.28757 1.3596
rclavicle 4.73853e-014 -4.07509e-014
rhumerus -24.8203 16.439 -94.6297
rradius 61.758
rwrist -5.42207
rhand -31.4378 48.8734
rfingers 7.12502
rthumb -4.70591 18.9457
lclavicle 4.73853e-014 -4.07509e-014
lhumerus -35.8327 33.957 66.9446
lradius 36.5487
lwrist 166.3
lhand -24.9472 -22.8689
lfingers 7.12502
lthumb 1.5626 7.10512
rfemur -24.9987 9.77999 11.3921
rtibia 25.541
rfoot -5.4515 -9.6147
rtoes 3.63661
lfemur -1.33745 -8.20952 -24.4344
ltibia 15.9733
lfoot -12.2268 -3.82258
ltoes 4.60417
257
root 15.5626 18.3577 -14.0676 -2.73385 -41.1485 5.32275
lowerback 4.11457 0.975868 -6.03169
upperback 2.16522 1.05157 -1.46465
thorax -0.155483 0.47712 1.82727
lowerneck -13.4857 -0.395103 -0.44039
upperneck 6.93254 -0.836433 3.70795
head 4.28296 -0.201848 1.15415
rclavicle -7.2954e-014 -7.55382e-015
rhumerus -24.7997 16.2328 -94.3739
rradius 59.0426
rwrist -5.68182
rhand -30.501 48.0413
rfingers 7.12502
rthumb -3.8013 18.0954
lclavicle -7.2954e-014 -7.55382e-015
lhumerus -36.0489 33.5988 67.0495
lradius 36.4644
lwrist 166.395
lhand -25.0693 -23.5698
lfingers 7.12502
lthumb 1.44464 6.40501
rfemur -24.9456 9.15688 11.7539
rtibia 26.1899
rfoot -5.87756 -9.73883
rtoes 3.63728
lfemur -2.01129 -8.41219 -24.2966
ltibia 16.5208
lfoot -12.4759 -3.04218
ltoes 3.57961
258
root 15.6077 18.361 -14.1373 -2.45324 -41.7473 5.3232
lowerback 3.83257 1.0924 -6.14936
upperback 2.0781 1.22234 -1.40404
thorax -0.104096 0.562049 1.95157
lowerneck -13.4546 -0.334749 -0.156575
upperneck 6.93167 -0.784412 3.49486
head 4.27442 -0.181536 1.0463
rclavicle 1.04362e-015 1.25234e-014
rhumerus -24.7059 15.9819 -94.0493
rradius 56.296
rwrist -5.82823
rhand -29.9953 47.4681
rfingers 7.12502
rthumb -3.31294 17.5141
lclavicle 1.04362e-015 1.25234e-014
lhumerus -36.0698 33.1959 67.3484
lradius 36.4304
lwrist 166.267
lhand -23.4236 -22.0036
lfingers 7.12502
lthumb 3.03398 7.95453
rfemur -25.0161 8.78689 11.9363
rtibia 26.8231
rfoot -6.43841 -9.94734
rtoes 5.06528
lfemur -2.83554 -8.69937 -24.2347
ltibia 17.0929
lfoot -12.7253 -1.7291
ltoes 3.76899
259
root 15.6531 18.3573 -14.1983 -2.27555 -42.3337 5.06268
lowerback 3.7837 1.13076 -5.96152
upperback 2.09498 1.28517 -1.31531
thorax -0.0628719 0.593304 1.93664
lowerneck -13.4536 -0.276949 -0.19276
upperneck 6.86333 -0.720917 3.70627
head 4.25333 -0.139756 1.12209
rclavicle 6.5922e-014 -5.96354e-015
rhumerus -24.4027 15.9704 -93.7995
rradius 53.1749
rwrist -5.5822
rhand -29.9483 46.5279
rfingers 7.12502
rthumb -3.26749 16.5732
lclavicle 6.5922e-014 -5.96354e-015
lhumerus -36.2531 33.1051 67.3492
lradius 36.516
lwrist 166.671
lhand -23.1845 -21.0285
lfingers 7.12502
lthumb 3.2649 8.92622
rfemur -24.7528 8.43954 12.3794
rtibia 27.4791
rfoot -6.96082 -10.3041
rtoes 6.42261
lfemur -3.32229 -8.80022 -23.9918
ltibia 17.6061
lfoot -12.961 -0.644086
ltoes 4.07442
